# xmcd
# 
# Track frame offsets:
#     150
#     17465
#     43647
#     68747
# 
# Disc length: 1151
# 
# Revision: 0
# Processed by: cddbd v1.5.2PL0 Copyright (c) Steve Scherf et al.
# Submitted via: fre:ac v1.0.17
# 
DISCID=27047d04
DTITLE=Emma Shappline - Discovering Yourself
DYEAR=0
DGENRE=Acoustic
TTITLE0=Discovering Yourself
TTITLE1=Cuerpo Sin Alma
TTITLE2=Spente le stell
TTITLE3=Miserere Venere
EXTD=
EXTT0=
EXTT1=
EXTT2=
EXTT3=
PLAYORDER=
